<mxfile host="app.diagrams.net" modified="2021-07-06T23:51:23.507Z" agent="5.0 (Windows NT 10.0; Win64; x64) AppleWebKit/537.36 (KHTML, like Gecko) Chrome/91.0.4472.124 Safari/537.36 Edg/91.0.864.64" etag="jzsERvsbv2nw6GgcphIN" version="14.8.4" type="github">
  <diagram id="RAaJzqRZ50rlZ-oBU3rn" name="MACH">
    <mxGraphModel dx="1422" dy="794" grid="1" gridSize="10" guides="1" tooltips="1" connect="1" arrows="1" fold="1" page="1" pageScale="1" pageWidth="1100" pageHeight="850" math="0" shadow="0">
      <root>
        <mxCell id="0" />
        <mxCell id="1" parent="0" />
        <mxCell id="0dFai5X98o0oIwshJFrx-1" value="" style="shape=image;imageAspect=0;aspect=fixed;verticalLabelPosition=bottom;verticalAlign=top;image=https://images.contentstack.io/v3/assets/bltb9eff0ec0532965e/blt72d9a6fb76dba5c0/5eecc401688c1c62a49aec19/Screenshot_2020-06-19_at_15.05.56.png;" vertex="1" parent="1">
          <mxGeometry x="41" y="40" width="1033.92" height="680" as="geometry" />
        </mxCell>
      </root>
    </mxGraphModel>
  </diagram>
</mxfile>
